<?xml version="1.0" encoding="UTF-8" standalone="no"?>
<!-- Created with Inkscape (http://www.inkscape.org/) -->

<svg
   xmlns:dc="http://purl.org/dc/elements/1.1/"
   xmlns:cc="http://creativecommons.org/ns#"
   xmlns:rdf="http://www.w3.org/1999/02/22-rdf-syntax-ns#"
   xmlns:svg="http://www.w3.org/2000/svg"
   xmlns="http://www.w3.org/2000/svg"
   xmlns:sodipodi="http://sodipodi.sourceforge.net/DTD/sodipodi-0.dtd"
   xmlns:inkscape="http://www.inkscape.org/namespaces/inkscape"
   width="512"
   height="512"
   id="svg2"
   version="1.1"
   inkscape:version="0.48.4 r9939"
   sodipodi:docname="512.svg"
   inkscape:export-filename="C:\Projects\Android.Play.ExpansionLibrary\Resources\128.png"
   inkscape:export-xdpi="22.5"
   inkscape:export-ydpi="22.5">
  <defs
     id="defs4" />
  <sodipodi:namedview
     id="base"
     pagecolor="#ffffff"
     bordercolor="#666666"
     borderopacity="1.0"
     inkscape:pageopacity="0.0"
     inkscape:pageshadow="2"
     inkscape:zoom="0.49497475"
     inkscape:cx="346.07183"
     inkscape:cy="204.26232"
     inkscape:document-units="px"
     inkscape:current-layer="layer1"
     showgrid="false"
     inkscape:window-width="1202"
     inkscape:window-height="697"
     inkscape:window-x="70"
     inkscape:window-y="-8"
     inkscape:window-maximized="1" />
  <metadata
     id="metadata7">
    <rdf:RDF>
      <cc:Work
         rdf:about="">
        <dc:format>image/svg+xml</dc:format>
        <dc:type
           rdf:resource="http://purl.org/dc/dcmitype/StillImage" />
        <dc:title></dc:title>
      </cc:Work>
    </rdf:RDF>
  </metadata>
  <g
     inkscape:label="Layer 1"
     inkscape:groupmode="layer"
     id="layer1"
     transform="translate(0,-540.36218)">
    <path
       style="fill:#a4c939"
       d="m 215.79882,959.29395 c -7.22157,-2.75255 -11.63628,-7.4452 -13.40909,-14.2533 -0.65642,-2.52084 -0.78849,-6.88045 -0.78849,-26.02779 l 0,-22.99983 -1.14311,-0.25768 c -0.62871,-0.14174 -5.25831,-0.31753 -10.28799,-0.39069 -9.11726,-0.13265 -9.15526,-0.13798 -12.58631,-1.76318 -4.52102,-2.14148 -8.53644,-6.15692 -10.67794,-10.67793 l -1.63013,-3.44144 -0.1342,-68.45956 -0.13421,-68.45957 90.94791,0 90.94791,0 0,66.70167 c 0,71.88316 0.087,69.38603 -2.60139,74.65573 -1.76246,3.45471 -6.34327,7.85705 -10.06934,9.67703 -3.33033,1.62673 -3.34026,1.62815 -13.34312,1.88512 -5.71376,0.14677 -10.23031,0.47787 -10.52287,0.77147 -0.32609,0.32718 -0.56573,9.30115 -0.65871,24.66775 l -0.14615,24.1535 -1.91654,3.87676 c -2.18088,4.41149 -4.99284,7.20754 -9.45157,9.39804 -2.59463,1.27475 -3.37094,1.40374 -8.44579,1.40374 -4.99989,0 -5.89453,-0.14342 -8.4936,-1.36157 -4.05531,-1.90076 -7.69024,-5.46899 -9.67357,-9.49609 l -1.64673,-3.34367 -0.25403,-24.54429 c -0.21812,-21.07539 -0.36173,-24.61227 -1.01609,-25.02562 -0.82788,-0.52293 -24.29341,-0.69562 -25.61491,-0.18854 -0.71661,0.27501 -0.80363,2.82717 -0.80363,23.57077 0,21.72858 -0.0661,23.47653 -1.00335,26.51085 -1.76749,5.72245 -5.43781,9.87692 -11.03857,12.49459 -2.45946,1.14951 -3.74195,1.39612 -7.77198,1.49437 -3.10414,0.0757 -5.47091,-0.12792 -6.63241,-0.57064 z m -85.17207,-96.733 c -5.14235,-1.83215 -9.1457,-5.50222 -11.72467,-10.74856 l -1.3829,-2.8132 -0.13741,-46.70173 c -0.15294,-51.9818 -0.30505,-49.46355 3.31288,-54.84569 8.63651,-12.84796 28.14369,-11.40107 35.0146,2.59712 l 1.43773,2.92909 0,48.01061 0,48.0106 -1.3616,2.90506 c -1.89548,4.04412 -5.4702,7.69098 -9.46804,9.65911 -2.91529,1.43519 -3.90315,1.65077 -8.18212,1.78557 -3.74597,0.11802 -5.47486,-0.0634 -7.50847,-0.78798 z m 236.71121,-0.0608 c -5.30426,-1.95436 -9.10918,-5.5618 -11.70244,-11.09507 l -1.36565,-2.91389 0,-47.24853 0,-47.24853 1.22366,-3.04829 c 0.8875,-2.21088 2.14363,-3.96826 4.57244,-6.39707 4.50685,-4.50685 7.60081,-5.75907 14.27183,-5.77623 4.38371,-0.0113 5.14061,0.13605 8.25109,1.60612 6.13263,2.89839 10.30775,8.26772 11.55892,14.86509 0.74558,3.93143 0.69067,88.54534 -0.0598,92.07932 -1.33106,6.26835 -5.74295,11.83999 -11.51069,14.53649 -3.92319,1.83413 -11.17295,2.13888 -15.23941,0.64059 z M 165.04583,734.71727 c -0.84494,-1.0181 0.123,-10.57427 1.76894,-17.46417 5.05918,-21.17766 19.48712,-40.28462 39.33439,-52.09063 2.2339,-1.32882 4.19186,-2.62674 4.35101,-2.88426 0.15916,-0.25752 -2.80679,-6.10977 -6.59099,-13.005 -6.68654,-12.18359 -7.60537,-14.50444 -6.27072,-15.83909 0.79844,-0.79844 3.18935,-0.78266 3.84775,0.0254 0.28459,0.34928 3.52423,6.12198 7.1992,12.82823 3.67498,6.70624 6.95661,12.4694 7.29252,12.80701 0.47704,0.47947 1.64374,0.22547 5.32919,-1.16021 21.1543,-7.95372 44.74818,-8.28299 65.90032,-0.91969 3.63255,1.26453 7.01673,2.34032 7.52039,2.39065 0.70305,0.0703 2.56749,-2.91428 8.02702,-12.84937 3.9112,-7.11747 7.38568,-13.11529 7.72108,-13.32849 1.63816,-1.04132 4.42017,0.3252 4.42017,2.17118 0,0.39392 -3.0864,6.35587 -6.85866,13.2488 -3.77226,6.89292 -6.85866,12.86153 -6.85866,13.26358 0,0.40204 1.90007,1.89209 4.22238,3.31121 10.53345,6.43681 19.89639,14.95407 26.40536,24.0204 3.93597,5.48241 9.37208,16.10514 11.28,22.04231 1.99013,6.193 3.32741,13.5502 3.45078,18.98493 l 0.11184,4.92621 -90.49632,0.1284 c -78.49515,0.11138 -90.57729,0.0308 -91.10699,-0.60741 z m 53.0141,-33.4416 c 3.62837,-2.08017 4.96105,-6.94873 2.8499,-10.41128 -3.09918,-5.08307 -10.69885,-4.85755 -13.33823,0.3958 -1.91144,3.80449 -0.37631,8.49459 3.33133,10.17788 2.79387,1.26842 4.73823,1.2243 7.157,-0.1624 z m 82.60068,0.26159 c 0.97242,-0.48856 2.30723,-1.68847 2.96624,-2.66646 1.00237,-1.48755 1.16449,-2.25985 0.99194,-4.72527 -0.18048,-2.57867 -0.43693,-3.17776 -2.05134,-4.79218 -1.61442,-1.61441 -2.21351,-1.87086 -4.79218,-2.05134 -3.77926,-0.2645 -6.0275,1.10369 -7.44875,4.53301 -1.19216,2.87656 -0.849,5.31875 1.06735,7.59621 2.45906,2.92242 6.02759,3.73344 9.26674,2.10603 z"
       id="path2996"
       inkscape:connector-curvature="0" />
    <text
       xml:space="preserve"
       style="font-size:40px;font-style:normal;font-variant:normal;font-weight:normal;font-stretch:normal;line-height:125%;letter-spacing:0px;word-spacing:0px;fill:#000000;fill-opacity:1;stroke:none;font-family:Segoe UI;-inkscape-font-specification:Segoe UI"
       x="19.349609"
       y="1018.0765"
       id="text2998"
       sodipodi:linespacing="125%"><tspan
         sodipodi:role="line"
         id="tspan3000"
         x="19.349609"
         y="1018.0765">License Verification Library</tspan></text>
    <g
       id="g3791"
       transform="matrix(0.19071328,0.07826956,-0.07826956,0.19071328,297.93907,657.23734)">
      <path
         sodipodi:nodetypes="ccczcczcc"
         transform="translate(0,540.36218)"
         inkscape:connector-curvature="0"
         id="path3787"
         d="m 696.30602,297.85787 c 148.34013,-71.20089 293.73097,-65.18202 459.82668,-2.85714 l -9.7549,89.9282 c -38.1109,-17.24439 -121.3567,-58.88832 -149.09134,-3.28788 -27.73461,55.60044 -35.85789,157.50181 -24.42932,178.93038 L 860.93836,550.4699 c 8.74474,-49.95794 4.91951,-130.28716 -18.45758,-167.53154 -23.37709,-37.24438 -106.63523,-10.2451 -139.94053,0.90863 z"
         style="fill:#ff0000;stroke:none" />
      <path
         transform="matrix(0.9298107,0,0,0.9298107,74.516474,555.97823)"
         d="m 1191.4286,326.28571 c 0,151.48381 -122.8019,274.2857 -274.28572,274.2857 -151.48381,0 -274.2857,-122.80189 -274.2857,-274.2857 C 642.85718,174.80189 765.65907,52 917.14288,52 1068.6267,52 1191.4286,174.80189 1191.4286,326.28571 z"
         sodipodi:ry="274.28571"
         sodipodi:rx="274.28571"
         sodipodi:cy="326.28571"
         sodipodi:cx="917.14288"
         id="path3015"
         style="fill:none;stroke:#000000;stroke-width:64.52926636;stroke-miterlimit:4;stroke-dasharray:none"
         sodipodi:type="arc" />
      <path
         transform="translate(-2.0203051,540.36218)"
         d="m 973.78705,330.17255 c 0,23.98934 -22.61304,43.43655 -50.50763,43.43655 -27.89459,0 -50.50763,-19.44721 -50.50763,-43.43655 0,-23.98935 22.61304,-43.43656 50.50763,-43.43656 27.89459,0 50.50763,19.44721 50.50763,43.43656 z"
         sodipodi:ry="43.436558"
         sodipodi:rx="50.507629"
         sodipodi:cy="330.17255"
         sodipodi:cx="923.27942"
         id="path3789"
         style="fill:#000000;fill-opacity:1;stroke:none"
         sodipodi:type="arc" />
    </g>
  </g>
</svg>
