<?xml version="1.0" encoding="UTF-8" standalone="no"?>
<!-- Created with Inkscape (http://www.inkscape.org/) -->

<svg
   xmlns:dc="http://purl.org/dc/elements/1.1/"
   xmlns:cc="http://creativecommons.org/ns#"
   xmlns:rdf="http://www.w3.org/1999/02/22-rdf-syntax-ns#"
   xmlns:svg="http://www.w3.org/2000/svg"
   xmlns="http://www.w3.org/2000/svg"
   xmlns:xlink="http://www.w3.org/1999/xlink"
   xmlns:sodipodi="http://sodipodi.sourceforge.net/DTD/sodipodi-0.dtd"
   xmlns:inkscape="http://www.inkscape.org/namespaces/inkscape"
   width="1024"
   height="1024"
   viewBox="0 0 1024 1024"
   id="svg2"
   version="1.1"
   inkscape:version="0.91 r13725"
   sodipodi:docname="icon.svg"
   inkscape:export-filename="C:\Projects\components-working\JenkinsRoot\AndroidGroup\SortableTableView\images\icon_256x256.png"
   inkscape:export-xdpi="22.5"
   inkscape:export-ydpi="22.5">
  <defs
     id="defs4">
    <linearGradient
       inkscape:collect="always"
       id="linearGradient3338">
      <stop
         style="stop-color:#e3dbdb;stop-opacity:1"
         offset="0"
         id="stop3340" />
      <stop
         style="stop-color:#191817;stop-opacity:1"
         offset="1"
         id="stop3342" />
    </linearGradient>
    <linearGradient
       inkscape:collect="always"
       xlink:href="#linearGradient3338"
       id="linearGradient3344"
       x1="478.81232"
       y1="-64.866623"
       x2="478.81232"
       y2="1167.5195"
       gradientUnits="userSpaceOnUse" />
    <filter
       inkscape:label="Film Grain"
       inkscape:menu="Image Effects"
       inkscape:menu-tooltip="Adds a small scale graininess"
       style="color-interpolation-filters:sRGB;"
       id="filter4157">
      <feTurbulence
         type="fractalNoise"
         numOctaves="3"
         baseFrequency="1"
         seed="0"
         result="result0"
         id="feTurbulence4159" />
      <feColorMatrix
         result="result4"
         values="0"
         type="saturate"
         id="feColorMatrix4161" />
      <feComposite
         in="SourceGraphic"
         in2="result4"
         operator="arithmetic"
         k1="0.5"
         k2="0.25"
         k3="0.25"
         result="result2"
         id="feComposite4163" />
      <feBlend
         result="result5"
         mode="normal"
         in="result2"
         in2="SourceGraphic"
         id="feBlend4165" />
      <feComposite
         in="result5"
         in2="SourceGraphic"
         operator="in"
         result="result3"
         id="feComposite4167" />
    </filter>
    <clipPath
       clipPathUnits="userSpaceOnUse"
       id="clipPath4158">
      <rect
         style="fill:#ff9a00;fill-opacity:1;stroke:none;stroke-width:9;stroke-linecap:round;stroke-linejoin:round;stroke-miterlimit:4;stroke-dasharray:none;stroke-opacity:1"
         id="rect4160"
         width="941.04401"
         height="549.39563"
         x="38.076923"
         y="412.30719" />
    </clipPath>
    <filter
       style="color-interpolation-filters:sRGB;"
       inkscape:label="Drop Shadow"
       id="filter4275">
      <feFlood
         flood-opacity="0.498039"
         flood-color="rgb(0,0,0)"
         result="flood"
         id="feFlood4277" />
      <feComposite
         in="flood"
         in2="SourceGraphic"
         operator="in"
         result="composite1"
         id="feComposite4279" />
      <feGaussianBlur
         in="composite1"
         stdDeviation="3"
         result="blur"
         id="feGaussianBlur4281" />
      <feOffset
         dx="6"
         dy="6"
         result="offset"
         id="feOffset4283" />
      <feComposite
         in="SourceGraphic"
         in2="offset"
         operator="over"
         result="composite2"
         id="feComposite4285" />
    </filter>
  </defs>
  <sodipodi:namedview
     id="base"
     pagecolor="#ffffff"
     bordercolor="#666666"
     borderopacity="1.0"
     inkscape:pageopacity="0.0"
     inkscape:pageshadow="2"
     inkscape:zoom="0.3899801"
     inkscape:cx="283.29881"
     inkscape:cy="488.71734"
     inkscape:document-units="px"
     inkscape:current-layer="layer1"
     showgrid="false"
     borderlayer="true"
     units="px"
     inkscape:window-width="1440"
     inkscape:window-height="897"
     inkscape:window-x="-8"
     inkscape:window-y="-8"
     inkscape:window-maximized="1" />
  <metadata
     id="metadata7">
    <rdf:RDF>
      <cc:Work
         rdf:about="">
        <dc:format>image/svg+xml</dc:format>
        <dc:type
           rdf:resource="http://purl.org/dc/dcmitype/StillImage" />
        <dc:title />
      </cc:Work>
    </rdf:RDF>
  </metadata>
  <g
     inkscape:label="Layer 1"
     inkscape:groupmode="layer"
     id="layer1"
     transform="translate(0,-28.362161)">
    <rect
       style="fill:url(#linearGradient3344);fill-rule:evenodd;stroke:none;stroke-width:1px;stroke-linecap:butt;stroke-linejoin:miter;stroke-opacity:1;fill-opacity:1;filter:url(#filter4157)"
       id="rect3336"
       width="1100"
       height="1100"
       x="-38"
       y="-9.6378393" />
    <path
       style="fill:#283593;fill-opacity:1;filter:url(#filter4275)"
       d="m 613.17667,141.16866 c -48.05017,0 -68.7905,0.0744 -77.88739,0.50713 l -8.11395,0 -0.0243,9.84994 c -0.41153,11.14702 -0.48116,36.27517 -0.48116,93.35028 0,44.75709 0.0417,69.84752 0.25789,83.99015 0.0493,10.48474 0.11511,18.20341 0.21115,18.45544 0.14872,0.39051 3.03018,0.65948 10.29822,0.83251 10.01957,0.35951 30.91809,0.4275 75.73947,0.4275 47.12649,0 68.01261,-0.0703 77.38199,-0.48116 l 8.61761,-0.026 0,-9.23378 c 0.43412,-10.8023 0.50539,-35.73965 0.50539,-93.96471 0,-58.22507 -0.0712,-83.16415 -0.50539,-93.96645 l 0,-9.23377 -8.11395,0 c -9.09689,-0.4327 -29.83549,-0.50712 -77.88565,-0.50712 z m -283.61974,0.009 c -54.24468,0.002 -96.68532,0.10051 -125.98263,0.28212 -30.91007,0.12808 -47.00806,0.37557 -48.84816,0.75462 -14.22138,2.92958 -29.25784,14.33299 -35.68199,27.05921 -6.3445,12.5683 -6.18588,10.03455 -6.18588,97.90399 0,7.75476 0.0204,14.81343 0.0381,21.93606 0.0195,21.48849 0.0798,36.91371 0.26479,44.95733 0.1074,8.5802 0.23758,13.69964 0.37555,13.83769 0.10962,0.10958 8.38995,0.20101 21.71975,0.27519 22.71453,0.33531 69.8774,0.39808 170.34284,0.39808 109.24766,0 156.21138,-0.0663 176.35041,-0.48636 l 15.88521,-0.0207 0,-9.23378 c 0.43413,-10.80229 0.5054,-35.73965 0.5054,-93.96471 0,-58.22507 -0.0712,-83.16414 -0.5054,-93.96644 l 0,-9.23378 -14.28942,-0.0225 c -17.73793,-0.41712 -58.8359,-0.48037 -153.98858,-0.47596 z m 466.06254,0 c -36.0695,-0.004 -52.31656,0.0641 -59.76771,0.46904 l -7.3351,0.0294 -0.0243,9.8136 c -0.41284,11.1269 -0.48116,36.24369 -0.48116,93.38662 0,44.64435 0.0415,69.69975 0.25616,83.86207 0.0492,10.55976 0.11649,18.33057 0.21289,18.58353 0.13682,0.35921 2.78681,0.61384 9.16627,0.78751 0.1546,0.006 0.34313,0.0112 0.50366,0.0173 0.24874,0.006 0.48079,0.0129 0.74079,0.019 10.4647,0.36863 32.63698,0.43615 80.68434,0.43615 50.11594,0 72.24033,-0.0687 82.11398,-0.48116 l 8.94473,-0.026 0.0276,-8.25242 c 0.40631,-8.79947 0.4703,-28.28191 0.46039,-72.00096 -0.007,-32.24552 -0.006,-52.355 -0.34962,-65.55549 -3.7e-4,-0.0143 -0.002,-0.0324 -0.002,-0.0467 -0.14148,-11.07651 -0.36178,-17.67256 -0.67328,-19.18237 -4.01088,-19.44065 -21.38136,-36.81082 -40.82419,-40.8242 -2.09149,-0.43173 -12.29761,-0.69892 -30.08637,-0.80309 -11.8733,-0.14317 -26.71142,-0.22993 -43.5675,-0.23192 z"
       id="path4213"
       inkscape:connector-curvature="0"
       sodipodi:nodetypes="ccccscccscccscccccccsssccccscccscccccccccscccccscccsccssccc" />
    <path
       inkscape:connector-curvature="0"
       id="path4239"
       d="m 305.59931,376.80045 c -95.32184,0 -190.64277,0.44082 -191.52601,1.32405 -1.74495,1.74497 -1.74495,83.84964 0,85.59461 1.76648,1.76647 381.28727,1.76647 383.05374,0 1.74497,-1.74497 1.74497,-83.84964 0,-85.59461 -0.88323,-0.88323 -96.2059,-1.32405 -191.52773,-1.32405 z m 307.57736,0.005 c -42.20613,0 -84.41228,0.43942 -85.29172,1.31886 -1.74496,1.74497 -1.74496,83.84964 0,85.5946 1.75889,1.7589 168.82453,1.7589 170.58342,0 1.74497,-1.74496 1.74497,-83.84963 0,-85.5946 -0.87944,-0.87944 -43.08557,-1.31886 -85.2917,-1.31886 z m 206.3987,0 c -44.73535,0 -89.46925,0.43903 -90.34908,1.31886 -1.74497,1.74497 -1.74497,83.84964 0,85.5946 1.75966,1.75967 178.94024,1.75967 180.6999,0 1.74497,-1.74496 1.74497,-83.84963 0,-85.5946 -0.87983,-0.87983 -45.61547,-1.31886 -90.35082,-1.31886 z M 305.59931,611.52876 c -95.32184,0 -190.64277,0.44256 -191.52601,1.3258 -1.74318,1.74317 -1.74318,78.79231 0,80.53548 1.76648,1.76648 381.28727,1.76648 383.05374,0 1.74318,-1.74317 1.74318,-78.79231 0,-80.53548 -0.88323,-0.88324 -96.2059,-1.3258 -191.52773,-1.3258 z m 307.57736,0.005 c -42.20613,0 -84.41228,0.44115 -85.29172,1.3206 -1.74317,1.74318 -1.74317,78.79232 0,80.53549 1.75889,1.7589 168.82453,1.75889 170.58342,0 0.90238,-0.90237 1.21329,-11.24223 1.21329,-40.26861 0,-29.02639 -0.31091,-39.36451 -1.21329,-40.26688 -0.87944,-0.87945 -43.08557,-1.3206 -85.2917,-1.3206 z m 206.3987,0 c -44.73535,0 -89.46925,0.44077 -90.34908,1.3206 -0.90237,0.90237 -1.21503,11.24049 -1.21503,40.26688 0,29.02638 0.31266,39.36624 1.21503,40.26861 1.75966,1.75966 178.94024,1.75965 180.6999,0 0.90237,-0.90237 1.21501,-11.24223 1.21501,-40.26861 0,-29.02639 -0.31264,-39.36451 -1.21501,-40.26688 -0.87983,-0.87983 -45.61547,-1.3206 -90.35082,-1.3206 z M 305.59931,839.17658 c -95.32184,0 -190.64277,0.44081 -191.52601,1.32405 -1.92024,1.92026 -1.63835,49.98217 0.34268,58.38655 4.42081,18.75485 20.20977,34.5119 39.18861,39.11071 7.52267,1.82283 341.70613,2.05517 343.52245,0.23885 1.74847,-1.74849 1.74847,-95.98763 0,-97.73611 -0.88323,-0.88324 -96.2059,-1.32405 -191.52773,-1.32405 z m 307.57736,0.005 c -42.20613,0 -84.41228,0.43941 -85.29172,1.31886 -1.74847,1.74847 -1.74847,95.98762 0,97.7361 1.75889,1.75889 168.82453,1.75889 170.58342,0 1.74849,-1.74848 1.74849,-95.98763 0,-97.7361 -0.87944,-0.87945 -43.08557,-1.31886 -85.2917,-1.31886 z m 206.3987,0 c -44.73535,0 -89.46925,0.43902 -90.34908,1.31886 -1.7825,1.78248 -1.74584,95.99194 0.0381,97.77592 0.97796,0.978 16.47472,1.18515 70.57132,0.94673 68.98469,-0.30404 69.34579,-0.31521 75.30677,-2.57195 9.00035,-3.4074 14.63878,-7.03953 21.02393,-13.53826 6.36953,-6.48284 12.02474,-17.06989 13.86366,-25.95323 1.57976,-7.6315 1.49289,-55.06247 -0.10385,-56.65921 -0.87983,-0.87984 -45.61548,-1.31886 -90.35082,-1.31886 z"
       style="fill:#697adb;fill-opacity:1;filter:url(#filter4275)"
       sodipodi:nodetypes="ssssssssssssssssssssssssssssssssssssssssssssssssssssssssssssss" />
    <path
       sodipodi:nodetypes="sscccscccssssscscscscsssccccsccccscccccsscccccccssssscccscccssscsccccccscsccc"
       style="fill:#4354b6;fill-opacity:1;filter:url(#filter4275)"
       d="m 613.17667,493.15815 c -42.20613,0 -84.41228,0.43942 -85.29172,1.31887 -1.21505,1.21504 -1.58241,42.29635 -1.10598,67.77436 0.0287,8.79955 0.14261,15.38831 0.38078,16.69176 0.0807,0.44207 0.20181,0.8661 0.34962,1.26348 0.11504,1.06288 0.23925,1.75369 0.37558,1.89002 0.0674,0.0674 0.45428,0.12991 0.98828,0.19212 0.20083,0.15942 0.40625,0.28397 0.61271,0.33924 0.61943,0.16579 7.59207,0.27196 18.19755,0.33231 44.51657,0.814 149.39163,0.52959 150.78488,-0.86367 1.74563,-1.74563 1.74563,-85.874 0,-87.61962 -0.87944,-0.87945 -43.08557,-1.31887 -85.2917,-1.31887 z m 206.3987,0 c -44.73535,0 -89.46925,0.43904 -90.34908,1.31887 -1.21618,1.21617 -1.58442,42.36931 -1.10598,67.84186 0.0291,8.76761 0.14316,15.32389 0.38077,16.62426 0.0806,0.44083 0.2007,0.86365 0.34789,1.26001 0.11514,1.065 0.24083,1.757 0.37732,1.89349 0.0656,0.0656 0.44704,0.12626 0.98135,0.18693 0.20301,0.16227 0.41077,0.28858 0.61963,0.34443 0.62188,0.16628 8.03504,0.27204 19.31737,0.33231 47.14157,0.81489 158.38743,0.53045 159.78155,-0.86367 1.74562,-1.74563 1.74562,-85.874 0,-87.61962 -0.87983,-0.87983 -45.61547,-1.31887 -90.35082,-1.31887 z m -615.79338,0.25616 c -40.12294,0.002 -62.21559,0.0963 -74.46561,0.33405 l -15.95095,0.0207 -0.0346,5.82066 c -0.39514,5.14122 -0.47251,15.8075 -0.47251,38.69705 0,16.98692 0.0487,27.05981 0.23191,33.32468 0.0479,5.9172 0.1207,10.14319 0.23191,10.43322 0.0408,0.10679 1.50427,0.20834 4.03108,0.30288 5.66745,0.53297 23.19952,0.74977 69.21955,0.79444 110.92876,0.59379 309.2466,0.26231 310.55432,-1.0454 1.88333,-1.88335 1.73204,-86.13281 -0.1575,-87.70098 -0.99917,-0.82927 -51.73295,-1.06351 -189.4629,-0.88443 -0.4964,-7e-4 -0.90816,-0.003 -1.40541,-0.004 -43.00954,-0.059 -76.40123,-0.0947 -102.31924,-0.0935 z m 615.79338,229.41318 c -44.73535,0 -89.46925,0.44076 -90.34908,1.32059 -1.2146,1.2146 -1.58224,41.31546 -1.10598,66.19761 0.0292,8.54829 0.14352,14.9477 0.38077,16.24521 0.0797,0.43572 0.1978,0.8537 0.3427,1.24617 0.1166,1.0725 0.24387,1.76697 0.38251,1.90561 0.0656,0.0656 0.44704,0.12799 0.98135,0.18865 0.20302,0.16229 0.41079,0.28859 0.61963,0.34444 0.62268,0.16648 8.05696,0.27209 19.3641,0.33231 47.16757,0.81392 158.34115,0.52827 159.73482,-0.8654 1.74497,-1.74497 1.74497,-83.84963 0,-85.5946 -0.87983,-0.87983 -45.61547,-1.32059 -90.35082,-1.32059 z m -206.3987,0.002 c -42.20613,0 -84.41228,0.43942 -85.29172,1.31886 -1.21442,1.21442 -1.58192,41.30426 -1.10598,66.18723 0.0292,8.5532 0.14344,14.9576 0.38078,16.2556 0.0797,0.43564 0.19778,0.85369 0.3427,1.24617 0.1166,1.0725 0.24387,1.76697 0.3825,1.9056 0.0674,0.0674 0.45428,0.13163 0.98828,0.19385 0.20084,0.15943 0.40628,0.28399 0.61271,0.33924 0.61943,0.16579 7.59207,0.27196 18.19755,0.33231 44.51657,0.81401 149.39163,0.52787 150.78488,-0.8654 1.74497,-1.74497 1.74497,-83.84963 0,-85.5946 -0.87944,-0.87944 -43.08557,-1.31886 -85.2917,-1.31886 z m -219.51985,0.29596 c -24.54927,-0.009 -54.07031,0.0119 -89.1756,0.0588 l -191.11579,0.25616 -0.225,36.0299 c -0.2608,21.17416 -0.27693,44.46905 0.20763,47.11909 0.0505,0.27467 0.11839,0.54035 0.19558,0.79962 0.12291,1.249 0.26824,1.97942 0.43962,2.186 0.0381,0.0463 0.36244,0.0925 0.83078,0.13673 0.2764,0.27878 0.56706,0.48139 0.8602,0.55905 0.73446,0.19457 21.7132,0.30628 52.7892,0.35827 105.25244,0.8223 327.19846,0.57898 328.6636,-0.88617 1.8826,-1.8826 1.73145,-84.10826 -0.1575,-85.67594 -0.75579,-0.62728 -29.6649,-0.91572 -103.31272,-0.94156 z"
       id="path4241"
       inkscape:connector-curvature="0" />
    <path
       inkscape:connector-curvature="0"
       id="path4331"
       d="m 174.06755,312.76916 c -0.21339,-0.0583 -0.67009,-0.11285 -1.01488,-0.12127 -1.10961,-0.027 -3.04661,-1.21504 -5.72578,-3.51162 -1.49906,-1.28499 -8.04938,-8.70296 -34.63753,-39.22557 -3.20843,-3.6832 -4.68214,-6.08952 -5.18631,-8.46841 -0.87111,-4.11017 1.12262,-7.303 5.17944,-8.29454 2.32798,-0.56899 2.13367,-0.56581 37.63454,-0.61583 35.07184,-0.0494 45.13603,0.0374 47.05489,0.40572 1.53584,0.29484 2.88405,0.69059 3.68291,1.08107 0.81674,0.39922 1.98476,1.41274 2.41118,2.09224 0.46142,0.73527 0.63382,2.94123 0.4047,5.1783 -0.17935,1.75103 -1.97578,5.02901 -4.22532,7.71 -3.05051,3.63558 -18.4903,21.3362 -28.1894,32.3171 -5.45498,6.17591 -6.47002,7.23186 -8.52945,8.87318 -2.26676,1.80655 -3.18043,2.31988 -4.39716,2.47043 -1.29726,0.16053 -4.02908,0.22737 -4.46183,0.1092 z"
       style="fill:#fefefe;fill-opacity:0.09803922"
       sodipodi:nodetypes="ccssssscsssssscc" />
    <path
       style="fill:#fefefe;fill-opacity:0.39215686"
       d="m 139.21357,237.10366 c -3.95808,-0.0848 -4.46457,-0.12144 -5.86071,-0.42354 -1.93795,-0.41936 -3.21854,-1.01657 -4.21224,-1.9644 -1.29095,-1.23135 -1.82104,-2.53262 -1.82372,-4.47691 -0.004,-2.31556 1.14826,-5.10999 3.21242,-7.79615 1.12755,-1.46731 19.62106,-22.69475 31.44989,-36.09917 4.57558,-5.18507 5.78431,-6.36898 8.07916,-7.91339 1.91421,-1.28825 2.71425,-1.49792 5.75512,-1.50831 3.49971,-0.0119 4.16835,0.23995 7.18729,2.70795 2.72463,2.2274 4.89467,4.56251 15.37332,16.54269 15.38208,17.58626 22.76541,26.19061 23.80496,27.74173 0.45317,0.67617 1.01063,1.66553 1.2388,2.19858 l 0.41484,0.96916 0.007,2.84523 0.007,2.84522 -0.37118,0.68038 c -0.50045,0.9173 -1.58033,1.90975 -2.56107,2.35368 -0.8633,0.39076 -2.91042,0.92732 -4.49255,1.1775 -1.11306,0.17601 -69.62605,0.28227 -77.20902,0.11975 z"
       id="path4419"
       inkscape:connector-curvature="0"
       sodipodi:nodetypes="ccscssscssssccccsscc" />
    <path
       sodipodi:nodetypes="ccssssscsssssscc"
       style="fill:#fefefe;fill-opacity:0.09803922"
       d="m 586.90913,312.76916 c -0.21339,-0.0583 -0.67009,-0.11285 -1.01488,-0.12127 -1.10961,-0.027 -3.04661,-1.21504 -5.72578,-3.51162 -1.49906,-1.28499 -8.04938,-8.70296 -34.63753,-39.22557 -3.20843,-3.6832 -4.68214,-6.08952 -5.18631,-8.46841 -0.87111,-4.11017 1.12262,-7.303 5.17944,-8.29454 2.32798,-0.56899 2.13367,-0.56581 37.63454,-0.61583 35.07184,-0.0494 45.13603,0.0374 47.05489,0.40572 1.53584,0.29484 2.88405,0.69059 3.68291,1.08107 0.81674,0.39922 1.98476,1.41274 2.41118,2.09224 0.46142,0.73527 0.63382,2.94123 0.4047,5.1783 -0.17935,1.75103 -1.97578,5.02901 -4.22532,7.71 -3.05051,3.63558 -18.4903,21.3362 -28.1894,32.3171 -5.45498,6.17591 -6.47002,7.23186 -8.52945,8.87318 -2.26676,1.80655 -3.18043,2.31988 -4.39716,2.47043 -1.29726,0.16053 -4.02908,0.22737 -4.46183,0.1092 z"
       id="path4421"
       inkscape:connector-curvature="0" />
    <path
       sodipodi:nodetypes="ccscssscssssccccsscc"
       inkscape:connector-curvature="0"
       id="path4423"
       d="m 552.05515,237.10366 c -3.95808,-0.0848 -4.46457,-0.12144 -5.86071,-0.42354 -1.93795,-0.41936 -3.21854,-1.01657 -4.21224,-1.9644 -1.29095,-1.23135 -1.82104,-2.53262 -1.82372,-4.47691 -0.004,-2.31556 1.14826,-5.10999 3.21242,-7.79615 1.12755,-1.46731 19.62106,-22.69475 31.44989,-36.09917 4.57558,-5.18507 5.78431,-6.36898 8.07916,-7.91339 1.91421,-1.28825 2.71425,-1.49792 5.75512,-1.50831 3.49971,-0.0119 4.16835,0.23995 7.18729,2.70795 2.72463,2.2274 4.89467,4.56251 15.37332,16.54269 15.38208,17.58626 22.76541,26.19061 23.80496,27.74173 0.45317,0.67617 1.01063,1.66553 1.2388,2.19858 l 0.41484,0.96916 0.007,2.84523 0.007,2.84522 -0.37118,0.68038 c -0.50045,0.9173 -1.58033,1.90975 -2.56107,2.35368 -0.8633,0.39076 -2.91042,0.92732 -4.49255,1.1775 -1.11306,0.17601 -69.62605,0.28227 -77.20902,0.11975 z"
       style="fill:#fefefe;fill-opacity:0.09803922" />
    <path
       inkscape:connector-curvature="0"
       id="path4425"
       d="m 788.20145,312.76916 c -0.21339,-0.0583 -0.67009,-0.11285 -1.01488,-0.12127 -1.10961,-0.027 -3.04661,-1.21504 -5.72578,-3.51162 -1.49906,-1.28499 -8.04938,-8.70296 -34.63753,-39.22557 -3.20843,-3.6832 -4.68214,-6.08952 -5.18631,-8.46841 -0.87111,-4.11017 1.12262,-7.303 5.17944,-8.29454 2.32798,-0.56899 2.13367,-0.56581 37.63454,-0.61583 35.07184,-0.0494 45.13603,0.0374 47.05489,0.40572 1.53584,0.29484 2.88405,0.69059 3.68291,1.08107 0.81674,0.39922 1.98476,1.41274 2.41118,2.09224 0.46142,0.73527 0.63382,2.94123 0.4047,5.1783 -0.17935,1.75103 -1.97578,5.02901 -4.22532,7.71 -3.05051,3.63558 -18.4903,21.3362 -28.1894,32.3171 -5.45498,6.17591 -6.47002,7.23186 -8.52945,8.87318 -2.26676,1.80655 -3.18043,2.31988 -4.39716,2.47043 -1.29726,0.16053 -4.02908,0.22737 -4.46183,0.1092 z"
       style="fill:#fefefe;fill-opacity:0.09803922"
       sodipodi:nodetypes="ccssssscsssssscc" />
    <path
       style="fill:#fefefe;fill-opacity:0.09803922"
       d="m 753.34747,237.10366 c -3.95808,-0.0848 -4.46457,-0.12144 -5.86071,-0.42354 -1.93795,-0.41936 -3.21854,-1.01657 -4.21224,-1.9644 -1.29095,-1.23135 -1.82104,-2.53262 -1.82372,-4.47691 -0.004,-2.31556 1.14826,-5.10999 3.21242,-7.79615 1.12755,-1.46731 19.62106,-22.69475 31.44989,-36.09917 4.57558,-5.18507 5.78431,-6.36898 8.07916,-7.91339 1.91421,-1.28825 2.71425,-1.49792 5.75512,-1.50831 3.49971,-0.0119 4.16835,0.23995 7.18729,2.70795 2.72463,2.2274 4.89467,4.56251 15.37332,16.54269 15.38208,17.58626 22.76541,26.19061 23.80496,27.74173 0.45317,0.67617 1.01063,1.66553 1.2388,2.19858 l 0.41484,0.96916 0.007,2.84523 0.007,2.84522 -0.37118,0.68038 c -0.50045,0.9173 -1.58033,1.90975 -2.56107,2.35368 -0.8633,0.39076 -2.91042,0.92732 -4.49255,1.1775 -1.11306,0.17601 -69.62605,0.28227 -77.20902,0.11975 z"
       id="path4427"
       inkscape:connector-curvature="0"
       sodipodi:nodetypes="ccscssscssssccccsscc" />
  </g>
</svg>
