<?xml version="1.0" encoding="UTF-8"?>
<svg width="1024px" height="1024px" viewBox="0 0 1024 1024" version="1.1" xmlns="http://www.w3.org/2000/svg" xmlns:xlink="http://www.w3.org/1999/xlink">
    <!-- Generator: Sketch 40.3 (33839) - http://www.bohemiancoding.com/sketch -->
    <title>square.retrofit2</title>
    <desc>Created with Sketch.</desc>
    <defs></defs>
    <g id="Page-1" stroke="none" stroke-width="1" fill="none" fill-rule="evenodd">
        <g id="square.retrofit2">
            <g id="layer1" transform="translate(0.000000, 0.592736)">
                <rect id="rect4179" fill="#F2F2F2" x="0" y="0.336483426" width="1024" height="1022.14156"></rect>
                <g id="g4182" transform="translate(139.503607, 139.515398)" fill="#383838">
                    <path d="M139.769093,0.203997154 C62.4105472,0.203997154 0.132729018,62.3687866 0.132729018,139.586935 L0.132729018,604.196736 C0.132729018,681.414885 62.4105472,743.579676 139.769093,743.579676 L605.223636,743.579676 C682.582184,743.579676 744.860002,681.414885 744.860002,604.196736 L744.860002,139.586935 C744.860002,62.3687866 682.582184,0.203997154 605.223636,0.203997154 L139.769093,0.203997154 L139.769093,0.203997154 Z M186.314547,139.586935 L558.678182,139.586935 C584.464364,139.586935 605.223636,160.308533 605.223636,186.047915 L605.223636,557.735756 C605.223636,583.475139 584.464364,604.196736 558.678182,604.196736 L186.314547,604.196736 C160.528365,604.196736 139.769093,583.475139 139.769093,557.735756 L139.769093,186.047915 C139.769093,160.308533 160.528365,139.586935 186.314547,139.586935 L186.314547,139.586935 Z" id="rect3347"></path>
                    <rect id="rect3347-9-4" x="274.751134" y="274.323532" width="195.490909" height="195.136116"></rect>
                </g>
                <rect id="rect4299" stroke="#383838" stroke-width="10" fill="#F2F2F2" x="316.509091" y="632.205817" width="651.636364" height="278.76588"></rect>
                <g id="text4287" transform="translate(352.629090, 657.074242)" font-size="180" font-family="Calibri-Bold, Calibri" fill="#000000" font-weight="bold">
                    <text id="Retrofit">
                        <tspan x="0" y="171">Retrofit</tspan>
                    </text>
                </g>
            </g>
        </g>
    </g>
</svg>